<?xml version="1.0" encoding="utf-8"?>
<!-- Generator: Adobe Illustrator 22.0.0, SVG Export Plug-In . SVG Version: 6.00 Build 0)  -->
<svg version="1.1" id="Layer_1" xmlns="http://www.w3.org/2000/svg" xmlns:xlink="http://www.w3.org/1999/xlink" x="0px" y="0px"
	 viewBox="0 0 118.2 118" style="enable-background:new 0 0 118.2 118;" xml:space="preserve">
<style type="text/css">
	.st0{fill:#FF210F;}
	.st1{fill:#FFFFFF;}
	.st2{fill:url(#SVGID_1_);}
</style>
<circle class="st0" cx="59.5" cy="58.5" r="33"/>
<circle cx="58.5" cy="58.5" r="11"/>
<path class="st1" d="M82.9,59.5c-5.2,6.9-11.4,12.6-19.7,15.2c-4.8,1.5-9.7,0.5-14.1-2c-5.4-3.2-10-7.2-13.7-12.3
	c-0.9-1.2-1.1-2.2-0.1-3.2c4.7-4.8,9.6-9.4,15.8-12.4c5.8-2.8,11.3-2.3,16.6,0.8C73.8,49.1,78.9,53.6,82.9,59.5z M62,50.3
	c-6.4-1.4-9.6,0.4-11.8,4.7c-2.6,5.2-0.1,9.6,3.3,12c3.5,2.4,9.1,1.5,12.1-1.8c2.7-3,3.1-7.3,1.3-9.7c-1.8-0.1-3.7,0.2-4.2-0.5
	C62,53.9,62.2,52.1,62,50.3z"/>
<path d="M2.1,101.4c6.2-1,54.5-0.2,56.3,1.2c-5.2,5.1-10.4,10.1-15.6,15c-0.3,0.3-1.1,0.4-1.6,0.4c-6.9,0-13.8,0-20.7,0
	c-0.6,0-1.3-0.2-1.8-0.5C12.5,113,6.9,107.8,2.1,101.4z"/>
<path d="M15.8,57.3C10.5,52,5.5,47,0.6,42C0.2,41.5,0,40.7,0,40c0-7.2-0.1-14.3,0-21.5c0-1.2,0.7-2.5,1.5-3.4
	C6,10.3,10.6,5.5,15.1,0.7c0.2,0.1,0.5,0.3,0.7,0.4C15.8,19.7,15.8,38.2,15.8,57.3z"/>
<path d="M103.1,114.8c0-18.5,0-37,0-55.5c0.2-0.1,0.4-0.3,0.6-0.4c3.8,3.9,7.4,7.9,11.4,11.6c2.4,2.2,3.3,4.4,3.1,7.6
	c-0.3,5.6-0.2,11.1,0,16.7c0.1,3.5-0.3,6.5-3,9.1c-3.9,3.7-7.6,7.7-11.3,11.5C103.6,115.2,103.4,115,103.1,114.8z"/>
<path d="M115.8,15c-18.5,0-37,0-56.2,0c2.2-2.3,4.1-4.1,5.9-6C68,6.6,70.6,4.2,73,1.7C74.1,0.5,75.1,0,76.7,0
	c7.2,0.1,14.5,0.1,21.7,0c2,0,3.5,0.4,5,1.9c4.1,4.2,8.5,8.2,12.8,12.3C116,14.5,115.9,14.7,115.8,15z"/>
<path d="M90.9,89.6c0,9.8,0,19,0,28.3c-9.4,0-18.9,0-28.9,0C71.7,108.4,81.1,99.2,90.9,89.6z"/>
<path d="M27,89.2c-0.6,0.2-1.4,0.5-2.1,0.5c-7.6,0-15.1,0-22.7,0c-1.4,0-2.2-0.4-2.2-2c0.1-8.4,0-16.8,0.1-25.2
	c0-0.1,0.1-0.3,0.2-0.3C9.1,71.2,17.9,80.1,27,89.2z"/>
<path d="M117.9,27.3c0,8.9,0,17.8,0,26.7c-9-8.9-17.9-17.6-27.2-26.7C100,27.3,108.8,27.3,117.9,27.3z"/>
<path d="M29.3,0.2c8.9,0,17.8,0,26.8,0c-9,9-17.9,17.8-26.8,26.6C29.3,18.1,29.3,9.2,29.3,0.2z"/>
<linearGradient id="SVGID_1_" gradientUnits="userSpaceOnUse" x1="-410.4751" y1="-212.4601" x2="-410.4751" y2="-212.4601">
	<stop  offset="0" style="stop-color:#FFFFFF"/>
	<stop  offset="1" style="stop-color:#000000"/>
</linearGradient>
<polygon class="st2" points="-410.5,-212.5 -410.5,-212.5 -410.5,-212.5 -410.5,-212.5 "/>
</svg>
